<svg width="43" height="43" viewBox="0 0 43 43" fill="none" xmlns="http://www.w3.org/2000/svg">
<g id="dark-dislay-mode">
<path id="Vector" d="M21.0179 41.5179C32.0736 41.5179 41.0357 32.5557 41.0357 21.5C41.0357 10.4444 32.0736 1.48215 21.0179 1.48215C9.9623 1.48215 1 10.4444 1 21.5C1 32.5557 9.9623 41.5179 21.0179 41.5179Z" stroke="white" stroke-width="2" stroke-linecap="round" stroke-linejoin="round"/>
<path id="Subtract" d="M28.5936 13.8696C24.4109 13.8696 21.0202 17.2603 21.0202 21.443C21.0202 25.6256 24.4109 29.0163 28.5936 29.0163C29.3644 29.0163 29.9531 29.943 29.388 30.4673C27.1922 32.5043 24.2516 33.7497 21.0202 33.7497C14.2234 33.7497 8.7135 28.2398 8.7135 21.443C8.7135 14.6461 14.2234 9.1362 21.0202 9.1362C24.2516 9.1362 27.1922 10.3816 29.388 12.4187C29.9531 12.9429 29.3644 13.8696 28.5936 13.8696Z" stroke="white" stroke-width="2" stroke-linecap="round" stroke-linejoin="round"/>
</g>
</svg>
