<svg width="30" height="31" viewBox="0 0 30 31" fill="none" xmlns="http://www.w3.org/2000/svg">
<g id="Platform=LinkedIn, Color=Negative" clip-path="url(#clip0_20_58)">
<path id="Vector" d="M27.7793 0.5H2.21484C0.990234 0.5 0 1.4668 0 2.66211V28.332C0 29.5273 0.990234 30.5 2.21484 30.5H27.7793C29.0039 30.5 30 29.5273 30 28.3379V2.66211C30 1.4668 29.0039 0.5 27.7793 0.5ZM8.90039 26.0645H4.44727V11.7441H8.90039V26.0645ZM6.67383 9.79297C5.24414 9.79297 4.08984 8.63867 4.08984 7.21484C4.08984 5.79102 5.24414 4.63672 6.67383 4.63672C8.09766 4.63672 9.25195 5.79102 9.25195 7.21484C9.25195 8.63281 8.09766 9.79297 6.67383 9.79297ZM25.5645 26.0645H21.1172V19.1035C21.1172 17.4453 21.0879 15.3066 18.8027 15.3066C16.4883 15.3066 16.1367 17.1172 16.1367 18.9863V26.0645H11.6953V11.7441H15.9609V13.7012H16.0195C16.6113 12.5762 18.0645 11.3867 20.2266 11.3867C24.7324 11.3867 25.5645 14.3516 25.5645 18.207V26.0645Z" fill="white"/>
</g>
<defs>
<clipPath id="clip0_20_58">
<rect width="30" height="30" fill="white" transform="translate(0 0.5)"/>
</clipPath>
</defs>
</svg>
