<svg width="30" height="31" viewBox="0 0 30 31" fill="none" xmlns="http://www.w3.org/2000/svg">
<g id="Platform=Medium, Color=Negative">
<path id="Vector" d="M30 15.2847C30 19.2589 29.3339 22.4825 28.5121 22.4825C27.6903 22.4825 27.0245 19.2597 27.0245 15.2847C27.0245 11.3097 27.6905 8.08691 28.5121 8.08691C29.3337 8.08691 30 11.3094 30 15.2847Z" fill="white"/>
<path id="Vector_2" d="M26.2035 15.2847C26.2035 19.7213 24.3095 23.3194 21.973 23.3194C19.6365 23.3194 17.7425 19.7213 17.7425 15.2847C17.7425 10.848 19.6362 7.25 21.9727 7.25C24.3092 7.25 26.2032 10.8469 26.2032 15.2847" fill="white"/>
<path id="Vector_3" d="M16.9218 15.2846C16.9218 19.998 13.1337 23.819 8.46105 23.819C3.78841 23.819 0 19.9972 0 15.2846C0 10.5721 3.78812 6.75 8.46105 6.75C13.134 6.75 16.9218 10.5712 16.9218 15.2846Z" fill="white"/>
</g>
</svg>
