<svg width="30" height="31" viewBox="0 0 30 31" fill="none" xmlns="http://www.w3.org/2000/svg">
<g id="Subtract">
<path id="Subtract_2" fill-rule="evenodd" clip-rule="evenodd" d="M0.87868 1.37868C0 2.25736 0 3.67157 0 6.5V24.5C0 27.3284 0 28.7426 0.87868 29.6213C1.75736 30.5 3.17157 30.5 6 30.5H24C26.8284 30.5 28.2426 30.5 29.1213 29.6213C30 28.7426 30 27.3284 30 24.5V6.5C30 3.67157 30 2.25736 29.1213 1.37868C28.2426 0.5 26.8284 0.5 24 0.5H6C3.17157 0.5 1.75736 0.5 0.87868 1.37868ZM5.65079 8.31217C5.23147 7.95275 4.60017 8.00131 4.24074 8.42064C3.88132 8.83996 3.92988 9.47126 4.34921 9.83068L13.6984 17.8443C14.4474 18.4863 15.5526 18.4863 16.3016 17.8443L25.6508 9.83068C26.0701 9.47126 26.1187 8.83996 25.7593 8.42064C25.3998 8.00131 24.7685 7.95275 24.3492 8.31217L15 16.3258L5.65079 8.31217Z" fill="white"/>
</g>
</svg>
